<svg version="1.1" id="Layer_1" xmlns="http://www.w3.org/2000/svg" xmlns:xlink="http://www.w3.org/1999/xlink" x="0px" y="0px"
	 width="100%" viewBox="0 0 500 200" enable-background="new 0 0 500 200" xml:space="preserve">
<path fill="#FCFCFC" opacity="1.000000" stroke="none" 
	d="
M308.000000,201.000000 
	C205.333359,201.000000 103.166702,201.000000 1.000041,201.000000 
	C1.000027,134.333359 1.000027,67.666725 1.000014,1.000068 
	C167.666611,1.000045 334.333221,1.000045 500.999878,1.000023 
	C500.999908,67.666595 500.999908,134.333191 500.999939,200.999893 
	C436.833344,201.000000 372.666656,201.000000 308.000000,201.000000 
M343.629944,85.076027 
	C344.013855,85.075951 344.397797,85.075874 344.887054,85.998108 
	C344.887054,97.604286 344.887054,109.210464 344.887054,120.877243 
	C353.362854,120.877243 361.236115,120.877243 369.095825,120.877243 
	C369.095825,92.108650 369.095825,63.724743 369.095825,34.947922 
	C360.798035,34.947922 352.813507,35.295605 344.878174,34.820854 
	C339.914856,34.523907 338.102417,36.305805 336.872711,40.958286 
	C332.783539,56.429150 328.171509,71.761826 323.759949,87.147484 
	C323.458679,87.152199 323.157440,87.156914 322.856171,87.161629 
	C317.862000,69.815994 312.867859,52.470364 307.926636,35.308586 
	C297.400085,35.308586 287.336304,35.308586 277.320129,35.308586 
	C277.320129,64.072533 277.320129,92.474709 277.320129,121.018623 
	C283.398346,121.018623 289.166443,121.018623 295.554840,121.018623 
	C295.554840,109.499779 295.554840,98.214134 296.234100,87.125740 
	C296.468475,87.100159 296.702850,87.074570 297.321808,87.658127 
	C297.975281,88.932632 298.844971,90.142693 299.247131,91.492088 
	C301.861053,100.262772 304.478729,109.035423 306.853424,117.872391 
	C307.547119,120.453819 308.699036,121.381523 311.334808,121.309486 
	C317.163788,121.150192 323.006531,121.096634 328.830658,121.327995 
	C331.759583,121.444351 332.856598,120.281662 333.599213,117.615532 
	C336.634186,106.718712 339.883209,95.881500 343.629944,85.076027 
M83.658203,34.942196 
	C82.227592,35.043903 80.796982,35.145611 78.777306,35.289192 
	C78.777306,51.914173 78.777306,68.188644 78.777306,85.884331 
	C77.130516,82.925400 76.220901,81.345222 75.361443,79.738228 
	C67.987427,65.950378 60.664326,52.134907 53.191078,38.401115 
	C52.431389,37.005013 50.817623,35.150715 49.544487,35.106312 
	C41.108181,34.812073 32.656662,34.954052 24.093693,34.954052 
	C24.093693,63.949501 24.093693,92.450851 24.093693,120.941177 
	C30.222158,120.941177 35.954205,120.941177 42.260124,120.941177 
	C42.260124,104.315674 42.260124,88.007820 42.260124,71.699966 
	C43.981083,73.119652 44.918682,74.644432 45.764179,76.218681 
	C53.162510,89.993729 60.507046,103.797966 67.986214,117.528900 
	C68.775101,118.977211 70.290428,121.026428 71.531357,121.071472 
	C80.098587,121.382416 88.682457,121.235146 97.348312,121.235146 
	C97.348312,92.102661 97.348312,63.717369 97.348312,34.941952 
	C92.899231,34.941952 88.761490,34.941952 83.658203,34.942196 
M116.443466,44.891556 
	C99.266541,60.386776 98.403946,82.473267 114.443329,99.056038 
	C121.504700,106.356636 128.847824,113.384857 135.901108,120.693039 
	C138.186539,123.061073 139.718475,123.030243 141.990234,120.680504 
	C149.628616,112.779961 157.551285,105.153702 165.166428,97.231461 
	C171.420746,90.724930 174.696701,82.716209 174.761002,73.742157 
	C174.863800,59.395767 168.687775,48.166889 156.002792,41.367523 
	C142.580032,34.172699 129.384445,35.563831 116.443466,44.891556 
M458.499817,34.948135 
	C444.737396,34.948135 430.975006,34.948135 417.143311,34.948135 
	C416.120514,41.371319 415.195587,47.179836 414.151367,53.737404 
	C421.794281,53.737404 428.675079,53.737404 436.044586,53.737404 
	C436.044586,76.601341 436.044586,98.813347 436.044586,120.957489 
	C444.329407,120.957489 452.081085,120.957489 460.352417,120.957489 
	C460.352417,98.451576 460.352417,76.240929 460.352417,53.390038 
	C467.751404,53.390038 474.646820,53.390038 481.928528,53.390038 
	C480.826569,46.863579 479.842987,41.038227 478.814667,34.948135 
	C472.109802,34.948135 465.804657,34.948135 458.499817,34.948135 
M180.005829,49.505516 
	C180.005829,73.265656 180.005829,97.025787 180.005829,120.999283 
	C197.598358,120.999283 214.652145,120.999283 232.304276,120.999283 
	C231.309586,114.831947 230.372101,109.019356 229.371826,102.817375 
	C221.110153,102.817375 213.185349,102.817375 204.648010,102.817375 
	C204.648010,80.010033 204.648010,57.645351 204.648010,35.272800 
	C196.122345,35.272800 188.223663,35.272800 180.005829,35.272800 
	C180.005829,39.903664 180.005829,44.206409 180.005829,49.505516 
M405.926849,97.499969 
	C405.926849,76.773285 405.926849,56.046608 405.926849,35.249931 
	C397.412445,35.249931 389.525574,35.249931 381.445679,35.249931 
	C381.445679,63.919502 381.445679,92.276077 381.445679,120.835800 
	C389.690338,120.835800 397.673035,120.835800 405.926849,120.835800 
	C405.926849,113.099525 405.926849,105.799736 405.926849,97.499969 
M240.712402,58.499924 
	C240.712402,79.241783 240.712402,99.983643 240.712402,120.893921 
	C249.124680,120.893921 256.975464,120.893921 264.915955,120.893921 
	C264.915955,92.162872 264.915955,63.796833 264.915955,35.278877 
	C256.780121,35.278877 248.907379,35.278877 240.712387,35.278877 
	C240.712387,42.902760 240.712387,50.201347 240.712402,58.499924 
M133.706757,139.162964 
	C129.444168,139.162964 125.181572,139.162964 120.917625,139.162964 
	C120.917625,149.268967 120.917625,158.800888 120.917625,168.200775 
	C125.102333,168.200775 128.868500,168.200775 133.020569,168.200775 
	C133.020569,162.495789 133.020569,157.113220 133.020569,150.369736 
	C136.300095,155.919998 138.875443,160.281967 141.454193,164.641937 
	C144.783630,170.271149 151.745407,170.364822 155.038864,164.828751 
	C157.705627,160.346130 160.377472,155.866501 163.047073,151.385559 
	C163.350754,151.464340 163.654434,151.543106 163.958115,151.621887 
	C163.958115,157.143204 163.958115,162.664505 163.958115,168.280518 
	C168.220764,168.280518 171.980423,168.280518 175.735458,168.280518 
	C175.735458,158.483154 175.735458,148.938217 175.735458,139.156052 
	C172.414383,139.156052 169.412689,139.408768 166.472488,139.091537 
	C162.864594,138.702271 160.733658,139.976837 158.932770,143.165604 
	C155.744919,148.810226 152.049759,154.168320 148.449448,159.831055 
	C143.604843,152.658401 139.070084,145.944473 133.706757,139.162964 
M201.507721,157.450638 
	C201.507721,161.044464 201.507721,164.638275 201.507721,168.248718 
	C205.970520,168.248718 209.733246,168.248718 214.104660,168.248718 
	C214.104660,161.997299 214.104660,156.013672 214.104660,149.150467 
	C219.296005,155.339325 223.737427,160.723923 228.303101,166.000992 
	C229.210114,167.049332 230.550171,168.315018 231.764725,168.398285 
	C236.033966,168.691025 240.335571,168.511978 244.602783,168.511978 
	C244.602783,158.458206 244.602783,148.915024 244.602783,139.464905 
	C240.487747,139.464905 236.736755,139.464905 232.513290,139.464905 
	C232.513290,145.675461 232.513290,151.580978 232.513290,158.687042 
	C227.234238,152.435425 222.808350,147.079529 218.227859,141.859299 
	C217.220993,140.711807 215.718903,139.394989 214.351273,139.281250 
	C210.262070,138.941147 206.126480,139.159012 201.507767,139.159012 
	C201.507767,145.215805 201.507767,150.840759 201.507721,157.450638 
M386.941559,157.248169 
	C385.878204,156.458267 384.630554,155.828171 383.783173,154.850983 
	C379.972198,150.456100 376.330719,145.913727 372.495270,141.541061 
	C371.594940,140.514603 370.216583,139.348557 368.990845,139.267731 
	C364.756317,138.988464 360.492065,139.160156 356.229797,139.160156 
	C356.229797,149.250381 356.229797,158.665085 356.229797,168.298859 
	C360.217651,168.298859 363.968536,168.298859 368.402466,168.298859 
	C368.402466,162.103561 368.402466,156.147018 368.402466,148.889297 
	C373.689453,155.224915 377.987640,160.479782 382.424835,165.614532 
	C383.445343,166.795502 384.882477,168.275574 386.232361,168.390472 
	C390.455231,168.749924 394.728058,168.522507 399.071045,168.522507 
	C399.071045,158.437378 399.071045,149.038330 399.071045,139.398499 
	C395.048340,139.398499 391.315399,139.398499 387.052979,139.398499 
	C387.052979,145.243622 387.052979,150.850525 386.941559,157.248169 
M78.632919,139.155960 
	C77.067848,139.155960 75.502785,139.155960 74.008675,139.155960 
	C74.008675,149.339401 74.008675,158.744095 74.008675,169.183792 
	C84.911552,168.449631 95.534248,168.251846 105.962379,166.725143 
	C109.203140,166.250687 113.727882,162.667816 114.548042,159.658554 
	C117.591354,148.492264 114.498138,141.471191 102.493904,140.062302 
	C94.934875,139.175110 87.243057,139.419312 78.632919,139.155960 
M429.436157,151.015564 
	C425.810883,151.015564 422.185638,151.015564 418.675812,151.015564 
	C417.367706,147.452347 418.592346,146.437607 421.713684,146.510056 
	C427.485138,146.644012 433.261963,146.548386 439.170288,146.548386 
	C439.170288,143.763687 439.170288,141.559586 439.170288,139.527100 
	C427.882324,139.527100 416.999390,139.527100 406.213989,139.527100 
	C406.213989,149.335938 406.213989,158.748932 406.213989,168.296860 
	C417.923401,168.296860 429.332214,168.296860 440.685608,168.296860 
	C440.685608,165.798325 440.685608,163.584656 440.685608,160.993103 
	C433.026184,160.993103 425.765991,160.993103 418.593506,160.993103 
	C417.502380,157.831436 418.375275,156.685471 421.396271,156.780350 
	C426.174042,156.930374 430.959961,156.820297 435.940552,156.820297 
	C435.940552,154.680435 435.940552,153.084732 435.940552,151.015564 
	C433.991058,151.015564 432.194122,151.015564 429.436157,151.015564 
M283.424988,160.033813 
	C286.723572,159.682785 290.075531,159.590317 293.308868,158.923096 
	C298.832550,157.783249 301.603577,154.619003 301.748077,149.919968 
	C301.897339,145.065887 299.091522,141.058655 293.325531,140.451996 
	C283.004242,139.366043 272.583191,139.228485 262.078308,138.688034 
	C262.078308,149.213669 262.078308,158.633652 262.078308,168.299988 
	C266.078003,168.299988 269.833099,168.299988 273.795868,168.299988 
	C273.949127,165.512299 274.090515,162.940460 274.250092,160.037964 
	C277.206238,160.037964 279.837585,160.037964 283.424988,160.033813 
M41.280025,139.169739 
	C39.355736,141.544800 37.224937,143.783279 35.546574,146.320984 
	C30.848593,153.424377 26.337587,160.651413 21.301510,168.536240 
	C24.023104,168.536240 25.651634,168.521500 27.279806,168.539307 
	C30.699492,168.576721 34.344395,169.350891 36.016739,164.896896 
	C36.257256,164.256332 37.949863,163.889786 38.981945,163.864502 
	C43.475254,163.754349 47.973400,163.779007 52.468330,163.848709 
	C53.400818,163.863159 54.887730,163.993607 55.170990,164.551773 
	C58.652435,171.412079 64.479477,167.535980 70.303085,168.764679 
	C65.215179,160.817276 60.376389,154.212112 56.587360,147.051468 
	C53.310562,140.858856 49.208057,137.665237 41.280025,139.169739 
M323.731567,163.827225 
	C326.559509,163.827225 329.390259,163.750381 332.214325,163.855164 
	C333.998383,163.921356 336.900604,163.668427 337.371521,164.568390 
	C340.982452,171.469193 346.746429,167.538162 352.576172,168.788589 
	C346.590790,159.429886 341.172913,151.271942 336.122070,142.892776 
	C334.330872,139.921234 332.215454,139.238373 328.940765,139.006668 
	C324.019043,138.658432 320.877838,140.098251 318.693512,144.639542 
	C316.978485,148.205215 314.446014,151.375183 312.306396,154.739822 
	C309.524109,159.115143 306.771179,163.509155 303.583374,168.564789 
	C307.115021,168.564789 309.619843,168.818283 312.041992,168.479889 
	C313.794495,168.235062 315.457397,167.250092 317.123627,166.512527 
	C319.038422,165.664978 320.912872,164.726288 323.731567,163.827225 
M449.673401,139.136307 
	C448.445618,139.965317 446.176758,140.763153 446.150879,141.628159 
	C445.887665,150.420532 445.990051,159.223846 445.990051,168.294922 
	C457.431427,168.294922 468.515930,168.294922 479.785095,168.294922 
	C479.785095,165.912186 479.785095,163.704529 479.785095,161.055817 
	C472.541382,161.055817 465.619904,161.055817 458.111938,161.055817 
	C458.111938,153.573273 458.111938,146.523727 458.111938,139.135864 
	C455.214386,139.135864 452.911652,139.135864 449.673401,139.136307 
M182.711121,150.516235 
	C182.711121,156.409897 182.711121,162.303543 182.711121,168.262222 
	C187.126526,168.262222 190.871124,168.262222 194.638000,168.262222 
	C194.638000,158.481827 194.638000,148.970474 194.638000,139.419434 
	C190.583389,139.419434 186.850418,139.419434 182.711121,139.419434 
	C182.711121,142.953400 182.711121,146.237946 182.711121,150.516235 
z"/>
<path fill="#030303" opacity="1.000000" stroke="none" 
	d="
M295.554840,86.928490 
	C295.554840,98.214134 295.554840,109.499779 295.554840,121.018623 
	C289.166443,121.018623 283.398346,121.018623 277.320129,121.018623 
	C277.320129,92.474709 277.320129,64.072533 277.320129,35.308586 
	C287.336304,35.308586 297.400085,35.308586 307.926636,35.308586 
	C312.867859,52.470364 317.862000,69.815994 322.856171,87.161629 
	C323.157440,87.156914 323.458679,87.152199 323.759949,87.147484 
	C328.171509,71.761826 332.783539,56.429150 336.872711,40.958286 
	C338.102417,36.305805 339.914856,34.523907 344.878174,34.820854 
	C352.813507,35.295605 360.798035,34.947922 369.095825,34.947922 
	C369.095825,63.724743 369.095825,92.108650 369.095825,120.877243 
	C361.236115,120.877243 353.362854,120.877243 344.887054,120.877243 
	C344.887054,109.210464 344.887054,97.604286 344.963806,85.188828 
	C344.949829,83.070580 344.859070,81.761597 344.768311,80.452621 
	C344.530548,80.447929 344.292786,80.443237 344.055054,80.438545 
	C343.721161,81.966476 343.387268,83.494400 343.053375,85.022331 
	C339.883209,95.881500 336.634186,106.718712 333.599213,117.615532 
	C332.856598,120.281662 331.759583,121.444351 328.830658,121.327995 
	C323.006531,121.096634 317.163788,121.150192 311.334808,121.309486 
	C308.699036,121.381523 307.547119,120.453819 306.853424,117.872391 
	C304.478729,109.035423 301.861053,100.262772 299.247131,91.492088 
	C298.844971,90.142693 297.975281,88.932632 297.269226,87.035324 
	C296.912842,84.259315 296.609009,82.106102 296.305176,79.952896 
	C295.815552,80.029648 295.325928,80.106400 294.836304,80.183144 
	C295.075806,82.431595 295.315338,84.680038 295.554840,86.928490 
z"/>
<path fill="#050505" opacity="1.000000" stroke="none" 
	d="
M84.140976,34.942074 
	C88.761490,34.941952 92.899231,34.941952 97.348312,34.941952 
	C97.348312,63.717369 97.348312,92.102661 97.348312,121.235146 
	C88.682457,121.235146 80.098587,121.382416 71.531357,121.071472 
	C70.290428,121.026428 68.775101,118.977211 67.986214,117.528900 
	C60.507046,103.797966 53.162510,89.993729 45.764179,76.218681 
	C44.918682,74.644432 43.981083,73.119652 42.260124,71.699966 
	C42.260124,88.007820 42.260124,104.315674 42.260124,120.941177 
	C35.954205,120.941177 30.222158,120.941177 24.093693,120.941177 
	C24.093693,92.450851 24.093693,63.949501 24.093693,34.954052 
	C32.656662,34.954052 41.108181,34.812073 49.544487,35.106312 
	C50.817623,35.150715 52.431389,37.005013 53.191078,38.401115 
	C60.664326,52.134907 67.987427,65.950378 75.361443,79.738228 
	C76.220901,81.345222 77.130516,82.925400 78.777306,85.884331 
	C78.777306,68.188644 78.777306,51.914173 78.777306,35.289192 
	C80.796982,35.145611 82.227592,35.043903 84.140976,34.942074 
z"/>
<path fill="#064EAF" opacity="1.000000" stroke="none" 
	d="
M116.721603,44.663864 
	C129.384445,35.563831 142.580032,34.172699 156.002792,41.367523 
	C168.687775,48.166889 174.863800,59.395767 174.761002,73.742157 
	C174.696701,82.716209 171.420746,90.724930 165.166428,97.231461 
	C157.551285,105.153702 149.628616,112.779961 141.990234,120.680504 
	C139.718475,123.030243 138.186539,123.061073 135.901108,120.693039 
	C128.847824,113.384857 121.504700,106.356636 114.443329,99.056038 
	C98.403946,82.473267 99.266541,60.386776 116.721603,44.663864 
M123.861053,70.629372 
	C124.725670,73.842110 125.344170,77.152359 126.561752,80.225250 
	C127.145210,81.697769 128.834290,83.741333 130.071426,83.775826 
	C136.342377,83.950645 143.220154,84.998787 148.674088,82.773026 
	C151.625671,81.568451 152.157852,74.434151 153.777817,69.973526 
	C153.834152,69.818359 153.838593,69.644936 153.888855,69.486893 
	C154.921677,66.238403 153.830597,64.894417 150.341797,64.972504 
	C143.516266,65.125275 136.682083,64.901878 129.857285,65.069862 
	C127.106667,65.137558 125.666832,64.443748 124.932625,61.548855 
	C123.759201,56.922146 121.360001,56.351532 116.258087,59.991638 
	C123.182762,60.511116 122.119705,65.963837 123.861053,70.629372 
M126.130058,91.269798 
	C127.815453,92.533081 129.362137,94.370888 131.242905,94.824974 
	C132.230438,95.063400 134.917725,92.827873 134.870728,91.799408 
	C134.782867,89.876617 133.710617,86.975258 132.246384,86.345901 
	C128.904144,84.909348 126.589531,86.775322 126.130058,91.269798 
M145.004303,94.802910 
	C148.608093,95.602348 151.321091,94.261833 151.039963,90.552742 
	C150.913773,88.887901 148.352753,87.046989 146.486969,86.061684 
	C145.792984,85.695198 142.885223,87.465446 142.815491,88.398033 
	C142.668182,90.368141 143.725769,92.428345 145.004303,94.802910 
z"/>
<path fill="#030303" opacity="1.000000" stroke="none" 
	d="
M458.999695,34.948135 
	C465.804657,34.948135 472.109802,34.948135 478.814667,34.948135 
	C479.842987,41.038227 480.826569,46.863579 481.928528,53.390038 
	C474.646820,53.390038 467.751404,53.390038 460.352417,53.390038 
	C460.352417,76.240929 460.352417,98.451576 460.352417,120.957489 
	C452.081085,120.957489 444.329407,120.957489 436.044586,120.957489 
	C436.044586,98.813347 436.044586,76.601341 436.044586,53.737404 
	C428.675079,53.737404 421.794281,53.737404 414.151367,53.737404 
	C415.195587,47.179836 416.120514,41.371319 417.143311,34.948135 
	C430.975006,34.948135 444.737396,34.948135 458.999695,34.948135 
z"/>
<path fill="#060606" opacity="1.000000" stroke="none" 
	d="
M180.005829,49.007336 
	C180.005829,44.206409 180.005829,39.903664 180.005829,35.272800 
	C188.223663,35.272800 196.122345,35.272800 204.648010,35.272800 
	C204.648010,57.645351 204.648010,80.010033 204.648010,102.817375 
	C213.185349,102.817375 221.110153,102.817375 229.371826,102.817375 
	C230.372101,109.019356 231.309586,114.831947 232.304276,120.999283 
	C214.652145,120.999283 197.598358,120.999283 180.005829,120.999283 
	C180.005829,97.025787 180.005829,73.265656 180.005829,49.007336 
z"/>
<path fill="#070707" opacity="1.000000" stroke="none" 
	d="
M405.926849,97.999962 
	C405.926849,105.799736 405.926849,113.099525 405.926849,120.835800 
	C397.673035,120.835800 389.690338,120.835800 381.445679,120.835800 
	C381.445679,92.276077 381.445679,63.919502 381.445679,35.249931 
	C389.525574,35.249931 397.412445,35.249931 405.926849,35.249931 
	C405.926849,56.046608 405.926849,76.773285 405.926849,97.999962 
z"/>
<path fill="#030303" opacity="1.000000" stroke="none" 
	d="
M240.712402,57.999928 
	C240.712387,50.201347 240.712387,42.902760 240.712387,35.278877 
	C248.907379,35.278877 256.780121,35.278877 264.915955,35.278877 
	C264.915955,63.796833 264.915955,92.162872 264.915955,120.893921 
	C256.975464,120.893921 249.124680,120.893921 240.712402,120.893921 
	C240.712402,99.983643 240.712402,79.241783 240.712402,57.999928 
z"/>
<path fill="#080808" opacity="1.000000" stroke="none" 
	d="
M134.121033,139.196762 
	C139.070084,145.944473 143.604843,152.658401 148.449448,159.831055 
	C152.049759,154.168320 155.744919,148.810226 158.932770,143.165604 
	C160.733658,139.976837 162.864594,138.702271 166.472488,139.091537 
	C169.412689,139.408768 172.414383,139.156052 175.735458,139.156052 
	C175.735458,148.938217 175.735458,158.483154 175.735458,168.280518 
	C171.980423,168.280518 168.220764,168.280518 163.958115,168.280518 
	C163.958115,162.664505 163.958115,157.143204 163.958115,151.621887 
	C163.654434,151.543106 163.350754,151.464340 163.047073,151.385559 
	C160.377472,155.866501 157.705627,160.346130 155.038864,164.828751 
	C151.745407,170.364822 144.783630,170.271149 141.454193,164.641937 
	C138.875443,160.281967 136.300095,155.919998 133.020569,150.369736 
	C133.020569,157.113220 133.020569,162.495789 133.020569,168.200775 
	C128.868500,168.200775 125.102333,168.200775 120.917625,168.200775 
	C120.917625,158.800888 120.917625,149.268967 120.917625,139.162964 
	C125.181572,139.162964 129.444168,139.162964 134.121033,139.196762 
z"/>
<path fill="#090909" opacity="1.000000" stroke="none" 
	d="
M201.507751,156.958191 
	C201.507767,150.840759 201.507767,145.215805 201.507767,139.159012 
	C206.126480,139.159012 210.262070,138.941147 214.351273,139.281250 
	C215.718903,139.394989 217.220993,140.711807 218.227859,141.859299 
	C222.808350,147.079529 227.234238,152.435425 232.513290,158.687042 
	C232.513290,151.580978 232.513290,145.675461 232.513290,139.464905 
	C236.736755,139.464905 240.487747,139.464905 244.602783,139.464905 
	C244.602783,148.915024 244.602783,158.458206 244.602783,168.511978 
	C240.335571,168.511978 236.033966,168.691025 231.764725,168.398285 
	C230.550171,168.315018 229.210114,167.049332 228.303101,166.000992 
	C223.737427,160.723923 219.296005,155.339325 214.104660,149.150467 
	C214.104660,156.013672 214.104660,161.997299 214.104660,168.248718 
	C209.733246,168.248718 205.970520,168.248718 201.507721,168.248718 
	C201.507721,164.638275 201.507721,161.044464 201.507751,156.958191 
z"/>
<path fill="#084FAF" opacity="1.000000" stroke="none" 
	d="
M386.997253,156.852798 
	C387.052979,150.850525 387.052979,145.243622 387.052979,139.398499 
	C391.315399,139.398499 395.048340,139.398499 399.071045,139.398499 
	C399.071045,149.038330 399.071045,158.437378 399.071045,168.522507 
	C394.728058,168.522507 390.455231,168.749924 386.232361,168.390472 
	C384.882477,168.275574 383.445343,166.795502 382.424835,165.614532 
	C377.987640,160.479782 373.689453,155.224915 368.402466,148.889297 
	C368.402466,156.147018 368.402466,162.103561 368.402466,168.298859 
	C363.968536,168.298859 360.217651,168.298859 356.229797,168.298859 
	C356.229797,158.665085 356.229797,149.250381 356.229797,139.160156 
	C360.492065,139.160156 364.756317,138.988464 368.990845,139.267731 
	C370.216583,139.348557 371.594940,140.514603 372.495270,141.541061 
	C376.330719,145.913727 379.972198,150.456100 383.783173,154.850983 
	C384.630554,155.828171 385.878204,156.458267 386.997253,156.852798 
z"/>
<path fill="#080808" opacity="1.000000" stroke="none" 
	d="
M79.121864,139.155975 
	C87.243057,139.419312 94.934875,139.175110 102.493904,140.062302 
	C114.498138,141.471191 117.591354,148.492264 114.548042,159.658554 
	C113.727882,162.667816 109.203140,166.250687 105.962379,166.725143 
	C95.534248,168.251846 84.911552,168.449631 74.008675,169.183792 
	C74.008675,158.744095 74.008675,149.339401 74.008675,139.155960 
	C75.502785,139.155960 77.067848,139.155960 79.121864,139.155975 
M85.950851,159.364517 
	C89.450554,163.236984 93.785095,160.939362 97.627419,160.566803 
	C101.364784,160.204468 103.189766,157.313095 102.957138,153.361008 
	C102.735565,149.596832 100.652290,147.481461 97.110931,147.034607 
	C93.541054,146.584167 89.915649,146.573822 85.946442,146.349884 
	C85.946442,150.788788 85.946442,154.592468 85.950851,159.364517 
z"/>
<path fill="#0D53B1" opacity="1.000000" stroke="none" 
	d="
M429.916656,151.015564 
	C432.194122,151.015564 433.991058,151.015564 435.940552,151.015564 
	C435.940552,153.084732 435.940552,154.680435 435.940552,156.820297 
	C430.959961,156.820297 426.174042,156.930374 421.396271,156.780350 
	C418.375275,156.685471 417.502380,157.831436 418.593506,160.993103 
	C425.765991,160.993103 433.026184,160.993103 440.685608,160.993103 
	C440.685608,163.584656 440.685608,165.798325 440.685608,168.296860 
	C429.332214,168.296860 417.923401,168.296860 406.213989,168.296860 
	C406.213989,158.748932 406.213989,149.335938 406.213989,139.527100 
	C416.999390,139.527100 427.882324,139.527100 439.170288,139.527100 
	C439.170288,141.559586 439.170288,143.763687 439.170288,146.548386 
	C433.261963,146.548386 427.485138,146.644012 421.713684,146.510056 
	C418.592346,146.437607 417.367706,147.452347 418.675812,151.015564 
	C422.185638,151.015564 425.810883,151.015564 429.916656,151.015564 
z"/>
<path fill="#074FAF" opacity="1.000000" stroke="none" 
	d="
M282.946960,160.035889 
	C279.837585,160.037964 277.206238,160.037964 274.250092,160.037964 
	C274.090515,162.940460 273.949127,165.512299 273.795868,168.299988 
	C269.833099,168.299988 266.078003,168.299988 262.078308,168.299988 
	C262.078308,158.633652 262.078308,149.213669 262.078308,138.688034 
	C272.583191,139.228485 283.004242,139.366043 293.325531,140.451996 
	C299.091522,141.058655 301.897339,145.065887 301.748077,149.919968 
	C301.603577,154.619003 298.832550,157.783249 293.308868,158.923096 
	C290.075531,159.590317 286.723572,159.682785 282.946960,160.035889 
M273.992950,150.493988 
	C274.105743,151.124588 274.224365,152.307434 274.330475,152.306305 
	C278.855469,152.258514 283.379333,152.105347 287.903351,151.965118 
	C287.843018,150.387985 287.943848,147.463577 287.698425,147.434235 
	C283.479706,146.929657 279.218689,146.716095 274.965363,146.689941 
	C274.646301,146.687988 274.315521,148.584106 273.992950,150.493988 
z"/>
<path fill="#0A0A0A" opacity="1.000000" stroke="none" 
	d="
M41.703045,139.165833 
	C49.208057,137.665237 53.310562,140.858856 56.587360,147.051468 
	C60.376389,154.212112 65.215179,160.817276 70.303085,168.764679 
	C64.479477,167.535980 58.652435,171.412079 55.170990,164.551773 
	C54.887730,163.993607 53.400818,163.863159 52.468330,163.848709 
	C47.973400,163.779007 43.475254,163.754349 38.981945,163.864502 
	C37.949863,163.889786 36.257256,164.256332 36.016739,164.896896 
	C34.344395,169.350891 30.699492,168.576721 27.279806,168.539307 
	C25.651634,168.521500 24.023104,168.536240 21.301510,168.536240 
	C26.337587,160.651413 30.848593,153.424377 35.546574,146.320984 
	C37.224937,143.783279 39.355736,141.544800 41.703045,139.165833 
M45.027966,148.668076 
	C43.646450,151.120895 42.264938,153.573730 40.853584,156.079529 
	C44.485645,156.079529 47.307922,156.079529 50.933102,156.079529 
	C48.809639,152.966690 47.165157,150.555984 45.027966,148.668076 
z"/>
<path fill="#0B52B0" opacity="1.000000" stroke="none" 
	d="
M323.268188,163.827209 
	C320.912872,164.726288 319.038422,165.664978 317.123627,166.512527 
	C315.457397,167.250092 313.794495,168.235062 312.041992,168.479889 
	C309.619843,168.818283 307.115021,168.564789 303.583374,168.564789 
	C306.771179,163.509155 309.524109,159.115143 312.306396,154.739822 
	C314.446014,151.375183 316.978485,148.205215 318.693512,144.639542 
	C320.877838,140.098251 324.019043,138.658432 328.940765,139.006668 
	C332.215454,139.238373 334.330872,139.921234 336.122070,142.892776 
	C341.172913,151.271942 346.590790,159.429886 352.576172,168.788589 
	C346.746429,167.538162 340.982452,171.469193 337.371521,164.568390 
	C336.900604,163.668427 333.998383,163.921356 332.214325,163.855164 
	C329.390259,163.750381 326.559509,163.827225 323.268188,163.827209 
M326.833313,156.606735 
	C328.695251,156.606735 330.557190,156.606735 333.144989,156.606735 
	C331.235352,153.223587 329.833618,150.740311 327.968231,147.435547 
	C326.094147,150.819901 324.670807,153.390305 323.006195,156.396408 
	C324.493744,156.498123 325.275940,156.551605 326.833313,156.606735 
z"/>
<path fill="#0C53B1" opacity="1.000000" stroke="none" 
	d="
M450.141144,139.136078 
	C452.911652,139.135864 455.214386,139.135864 458.111938,139.135864 
	C458.111938,146.523727 458.111938,153.573273 458.111938,161.055817 
	C465.619904,161.055817 472.541382,161.055817 479.785095,161.055817 
	C479.785095,163.704529 479.785095,165.912186 479.785095,168.294922 
	C468.515930,168.294922 457.431427,168.294922 445.990051,168.294922 
	C445.990051,159.223846 445.887665,150.420532 446.150879,141.628159 
	C446.176758,140.763153 448.445618,139.965317 450.141144,139.136078 
z"/>
<path fill="#080808" opacity="1.000000" stroke="none" 
	d="
M182.711121,150.019363 
	C182.711121,146.237946 182.711121,142.953400 182.711121,139.419434 
	C186.850418,139.419434 190.583389,139.419434 194.638000,139.419434 
	C194.638000,148.970474 194.638000,158.481827 194.638000,168.262222 
	C190.871124,168.262222 187.126526,168.262222 182.711121,168.262222 
	C182.711121,162.303543 182.711121,156.409897 182.711121,150.019363 
z"/>
<path fill="#828282" opacity="1.000000" stroke="none" 
	d="
M295.894470,87.027115 
	C295.315338,84.680038 295.075806,82.431595 294.836304,80.183144 
	C295.325928,80.106400 295.815552,80.029648 296.305176,79.952896 
	C296.609009,82.106102 296.912842,84.259315 297.076965,86.730759 
	C296.702850,87.074570 296.468475,87.100159 295.894470,87.027115 
z"/>
<path fill="#BABABA" opacity="1.000000" stroke="none" 
	d="
M343.341675,85.049179 
	C343.387268,83.494400 343.721161,81.966476 344.055054,80.438545 
	C344.292786,80.443237 344.530548,80.447929 344.768311,80.452621 
	C344.859070,81.761597 344.949829,83.070580 344.911133,84.727676 
	C344.397797,85.075874 344.013855,85.075951 343.341675,85.049179 
z"/>
<path fill="#FCFDFE" opacity="1.000000" stroke="none" 
	d="
M123.753181,70.241364 
	C122.119705,65.963837 123.182762,60.511116 116.258087,59.991638 
	C121.360001,56.351532 123.759201,56.922146 124.932625,61.548855 
	C125.666832,64.443748 127.106667,65.137558 129.857285,65.069862 
	C136.682083,64.901878 143.516266,65.125275 150.341797,64.972504 
	C153.830597,64.894417 154.921677,66.238403 153.888855,69.486893 
	C153.838593,69.644936 153.834152,69.818359 153.777817,69.973526 
	C152.157852,74.434151 151.625671,81.568451 148.674088,82.773026 
	C143.220154,84.998787 136.342377,83.950645 130.071426,83.775826 
	C128.834290,83.741333 127.145210,81.697769 126.561752,80.225250 
	C125.344170,77.152359 124.725670,73.842110 123.753181,70.241364 
z"/>
<path fill="#E9EFF8" opacity="1.000000" stroke="none" 
	d="
M126.100403,90.878220 
	C126.589531,86.775322 128.904144,84.909348 132.246384,86.345901 
	C133.710617,86.975258 134.782867,89.876617 134.870728,91.799408 
	C134.917725,92.827873 132.230438,95.063400 131.242905,94.824974 
	C129.362137,94.370888 127.815453,92.533081 126.100403,90.878220 
z"/>
<path fill="#EBF1F8" opacity="1.000000" stroke="none" 
	d="
M144.646698,94.627243 
	C143.725769,92.428345 142.668182,90.368141 142.815491,88.398033 
	C142.885223,87.465446 145.792984,85.695198 146.486969,86.061684 
	C148.352753,87.046989 150.913773,88.887901 151.039963,90.552742 
	C151.321091,94.261833 148.608093,95.602348 144.646698,94.627243 
z"/>
<path fill="#F8F8F8" opacity="1.000000" stroke="none" 
	d="
M85.948647,158.880341 
	C85.946442,154.592468 85.946442,150.788788 85.946442,146.349884 
	C89.915649,146.573822 93.541054,146.584167 97.110931,147.034607 
	C100.652290,147.481461 102.735565,149.596832 102.957138,153.361008 
	C103.189766,157.313095 101.364784,160.204468 97.627419,160.566803 
	C93.785095,160.939362 89.450554,163.236984 85.948647,158.880341 
z"/>
<path fill="#EBF1F8" opacity="1.000000" stroke="none" 
	d="
M273.991577,150.045929 
	C274.315521,148.584106 274.646301,146.687988 274.965363,146.689941 
	C279.218689,146.716095 283.479706,146.929657 287.698425,147.434235 
	C287.943848,147.463577 287.843018,150.387985 287.903351,151.965118 
	C283.379333,152.105347 278.855469,152.258514 274.330475,152.306305 
	C274.224365,152.307434 274.105743,151.124588 273.991577,150.045929 
z"/>
<path fill="#DADADA" opacity="1.000000" stroke="none" 
	d="
M45.274319,148.406677 
	C47.165157,150.555984 48.809639,152.966690 50.933102,156.079529 
	C47.307922,156.079529 44.485645,156.079529 40.853584,156.079529 
	C42.264938,153.573730 43.646450,151.120895 45.274319,148.406677 
z"/>
<path fill="#D6E2F2" opacity="1.000000" stroke="none" 
	d="
M326.445740,156.605911 
	C325.275940,156.551605 324.493744,156.498123 323.006195,156.396408 
	C324.670807,153.390305 326.094147,150.819901 327.968231,147.435547 
	C329.833618,150.740311 331.235352,153.223587 333.144989,156.606735 
	C330.557190,156.606735 328.695251,156.606735 326.445740,156.605911 
z"/>
</svg>